<svg width="20" height="21" viewBox="0 0 20 21" fill="none" xmlns="http://www.w3.org/2000/svg">
<g id="Icons">
<rect width="20" height="20" transform="translate(0 0.5)" fill="white"/>
<path id="Vector" d="M16.5924 6.1001L16.5898 6.1H12.8711V5.7C12.8711 5.03833 12.3191 4.5 11.6406 4.5H8.35938C7.68091 4.5 7.12891 5.03833 7.12891 5.7V6.1H3.41016C3.18179 6.1 3 6.2825 3 6.5V15.3C3 15.9617 3.552 16.5 4.23047 16.5H15.7695C16.448 16.5 17 15.9617 17 15.3V6.50844V6.50688C16.9843 6.24417 16.8186 6.10156 16.5924 6.1001ZM7.94922 5.7C7.94922 5.47948 8.13326 5.3 8.35938 5.3H11.6406C11.8667 5.3 12.0508 5.47948 12.0508 5.7V6.1H7.94922V5.7ZM16.0208 6.9L14.747 10.6265C14.6912 10.7901 14.5348 10.9 14.358 10.9H12.0508V10.5C12.0508 10.2791 11.8672 10.1 11.6406 10.1H8.35938C8.13283 10.1 7.94922 10.2791 7.94922 10.5V10.9H5.64198C5.46521 10.9 5.30884 10.7901 5.25298 10.6265L3.97925 6.9H16.0208ZM11.2305 10.9V11.7H8.76953V10.9H11.2305ZM16.1797 15.3C16.1797 15.5205 15.9957 15.7 15.7695 15.7H4.23047C4.00435 15.7 3.82031 15.5205 3.82031 15.3V8.9649L4.47475 10.8795C4.64244 11.3703 5.11156 11.7 5.64198 11.7H7.94922V12.1C7.94922 12.3209 8.13283 12.5 8.35938 12.5H11.6406C11.8672 12.5 12.0508 12.3209 12.0508 12.1V11.7H14.358C14.8884 11.7 15.3576 11.3703 15.5253 10.8795L16.1797 8.9649V15.3Z" fill="#015989"/>
</g>
</svg>
