<svg width="20" height="21" viewBox="0 0 20 21" fill="none" xmlns="http://www.w3.org/2000/svg">
<g id="Icons">
<rect width="20" height="20" transform="translate(0 0.5)" fill="white"/>
<g id="Group">
<g id="Group_2">
<g id="Group_3">
<path id="Vector" d="M10.3417 10.6163L10.3409 10.6156C9.32911 9.70418 5.93134 6.81848 3.94589 5.13681C4.0969 4.98384 4.29727 4.9 4.5091 4.9H16.5091C16.7209 4.9 16.9213 4.98383 17.0723 5.13681C15.0868 6.8185 11.6891 9.70448 10.6764 10.6168L10.676 10.6171C10.5971 10.6885 10.5425 10.6997 10.5091 10.6997C10.4762 10.6997 10.4215 10.6886 10.3417 10.6163Z" stroke="#015989" stroke-width="0.8"/>
<g id="Vector_2">
<mask id="path-2-inside-1_3529_588" fill="white">
<path d="M17.5351 5.13216C17.4287 5.07524 16.9091 4.7 16.9091 4.7C14.9091 6.3 12.2776 8.49469 11.3091 9.5C10.8151 10.0127 10.5091 10.3 10.5091 10.3C9.571 9.32813 4.50908 5.1 4.50908 5.1C4.42001 5.01307 3.58856 5.07589 3.48309 5.13213C3.37706 5.18875 3.30908 5.3107 3.30908 5.44511V14.1202C3.30908 14.8812 3.84725 15.5 4.50909 15.5H16.5091C17.1709 15.5 17.7091 14.8812 17.7091 14.1202V5.44511C17.7091 5.3107 17.6411 5.18843 17.5351 5.13216Z"/>
</mask>
<path d="M17.5351 5.13216L17.1576 5.83749L17.1601 5.83881L17.5351 5.13216ZM16.9091 4.7L17.3774 4.05142L16.8843 3.69533L16.4093 4.0753L16.9091 4.7ZM11.3091 9.5L10.733 8.94494L11.3091 9.5ZM10.5091 10.3L9.93348 10.8556L10.4814 11.4232L11.0566 10.8833L10.5091 10.3ZM4.50908 5.1L3.95033 5.67253L3.97248 5.69414L3.99623 5.71398L4.50908 5.1ZM3.48309 5.13213L3.10668 4.42621L3.10622 4.42645L3.48309 5.13213ZM17.9126 4.42683C17.9301 4.43622 17.9141 4.42784 17.8414 4.37853C17.7835 4.33926 17.7131 4.29015 17.6431 4.24081C17.5736 4.19185 17.507 4.14439 17.4576 4.10904C17.433 4.09141 17.4128 4.07689 17.3988 4.06682C17.3918 4.06179 17.3864 4.05788 17.3827 4.05526C17.3809 4.05394 17.3796 4.05295 17.3787 4.05231C17.3782 4.05198 17.3779 4.05175 17.3777 4.0516C17.3776 4.05152 17.3775 4.05147 17.3775 4.05144C17.3774 4.05143 17.3774 4.05142 17.3774 4.05141C17.3774 4.05141 17.3774 4.05141 17.3774 4.05141C17.3774 4.05141 17.3774 4.05142 16.9091 4.7C16.4407 5.34858 16.4407 5.34858 16.4408 5.34859C16.4408 5.3486 16.4408 5.34861 16.4408 5.34862C16.4408 5.34863 16.4409 5.34866 16.4409 5.34869C16.441 5.34875 16.4411 5.34883 16.4412 5.34894C16.4415 5.34915 16.442 5.34945 16.4425 5.34984C16.4436 5.35062 16.4451 5.35174 16.4471 5.35319C16.4512 5.35609 16.457 5.3603 16.4644 5.36564C16.4793 5.37632 16.5005 5.39156 16.5262 5.40999C16.5776 5.44679 16.6476 5.49669 16.7213 5.54865C16.8401 5.63236 17.0492 5.77949 17.1576 5.83748L17.9126 4.42683ZM16.4093 4.0753C14.4195 5.66713 11.7444 7.89514 10.733 8.94494L11.8852 10.055C12.8109 9.09424 15.3986 6.93286 17.4088 5.32469L16.4093 4.0753ZM10.733 8.94494C10.4914 9.19565 10.2966 9.39049 10.163 9.52176C10.0963 9.58739 10.0449 9.6371 10.0107 9.66992C9.99357 9.68633 9.98077 9.69852 9.97251 9.70636C9.96837 9.71028 9.96538 9.71311 9.96354 9.71485C9.96262 9.71571 9.96199 9.71631 9.96166 9.71662C9.96149 9.71678 9.9614 9.71686 9.96138 9.71688C9.96137 9.71689 9.96138 9.71688 9.96141 9.71686C9.96142 9.71684 9.96144 9.71683 9.96146 9.7168C9.96148 9.71679 9.9615 9.71677 9.9615 9.71677C9.96152 9.71675 9.96155 9.71673 10.5091 10.3C11.0566 10.8833 11.0566 10.8832 11.0567 10.8832C11.0567 10.8832 11.0567 10.8832 11.0567 10.8832C11.0568 10.8831 11.0568 10.8831 11.0569 10.883C11.057 10.8829 11.0571 10.8828 11.0572 10.8827C11.0575 10.8824 11.0579 10.8821 11.0583 10.8817C11.0591 10.8809 11.0603 10.8798 11.0617 10.8784C11.0646 10.8757 11.0687 10.8719 11.0739 10.8669C11.0843 10.8571 11.0993 10.8428 11.1186 10.8243C11.1572 10.7872 11.2132 10.733 11.2847 10.6628C11.4276 10.5222 11.6328 10.3171 11.8852 10.055L10.733 8.94494ZM11.0847 9.74441C10.5814 9.22296 9.04226 7.89096 7.67623 6.72669C6.98316 6.13598 6.31972 5.57593 5.82968 5.16366C5.58462 4.95748 5.38281 4.78818 5.24222 4.67038C5.17192 4.61147 5.11692 4.56544 5.07946 4.5341C5.06073 4.51843 5.04638 4.50644 5.0367 4.49835C5.03186 4.4943 5.02819 4.49123 5.02571 4.48917C5.02448 4.48813 5.02354 4.48735 5.02291 4.48682C5.0226 4.48656 5.02236 4.48636 5.02219 4.48622C5.02211 4.48616 5.02205 4.4861 5.02201 4.48607C5.02196 4.48603 5.02194 4.48601 4.50908 5.1C3.99623 5.71398 3.99624 5.714 3.99627 5.71402C3.99631 5.71405 3.99636 5.7141 3.99643 5.71416C3.99658 5.71428 3.9968 5.71446 3.9971 5.71471C3.99769 5.71521 3.99859 5.71596 3.99979 5.71696C4.00219 5.71897 4.0058 5.72198 4.01056 5.72596C4.02009 5.73393 4.03429 5.7458 4.05286 5.76133C4.09001 5.79241 4.14467 5.83816 4.21462 5.89677C4.35451 6.01399 4.5555 6.1826 4.79965 6.388C5.28803 6.79888 5.9487 7.3566 6.63837 7.94441C8.03782 9.13717 9.49872 10.4052 9.93348 10.8556L11.0847 9.74441ZM5.06784 4.52746C4.95295 4.41534 4.83245 4.36265 4.77519 4.34028C4.7083 4.31414 4.64782 4.29937 4.6054 4.29061C4.52054 4.27311 4.43756 4.26564 4.37333 4.26184C4.24063 4.25398 4.09294 4.25669 3.96139 4.26342C3.82731 4.27027 3.68911 4.28239 3.57061 4.29805C3.51212 4.30577 3.44913 4.31557 3.3894 4.32811C3.35947 4.33439 3.23171 4.35954 3.10668 4.42621L3.8595 5.83804C3.82385 5.85705 3.79455 5.86888 3.77802 5.87513C3.76023 5.88185 3.74635 5.88619 3.73833 5.88857C3.72295 5.89313 3.71496 5.89464 3.71821 5.89396C3.72449 5.89264 3.74445 5.88898 3.78014 5.88427C3.84997 5.87504 3.94498 5.86635 4.04308 5.86133C4.14371 5.85619 4.22717 5.85598 4.27872 5.85904C4.30661 5.86069 4.30403 5.86214 4.2821 5.85761C4.27115 5.85535 4.23777 5.84809 4.19289 5.83055C4.16954 5.82143 4.13602 5.8068 4.0973 5.78435C4.0594 5.76237 4.00595 5.72682 3.95033 5.67253L5.06784 4.52746ZM3.10622 4.42645C2.70513 4.64066 2.50908 5.05681 2.50908 5.44511H4.10908C4.10908 5.5646 4.04899 5.73684 3.85996 5.8378L3.10622 4.42645ZM2.50908 5.44511V14.1202H4.10908V5.44511H2.50908ZM2.50908 14.1202C2.50908 15.2145 3.30419 16.3 4.50909 16.3V14.7C4.43903 14.7 4.35024 14.669 4.26455 14.5705C4.17756 14.4705 4.10908 14.3134 4.10908 14.1202H2.50908ZM4.50909 16.3H16.5091V14.7H4.50909V16.3ZM16.5091 16.3C17.714 16.3 18.5091 15.2145 18.5091 14.1202H16.9091C16.9091 14.3134 16.8406 14.4705 16.7536 14.5705C16.6679 14.669 16.5791 14.7 16.5091 14.7V16.3ZM18.5091 14.1202V5.44511H16.9091V14.1202H18.5091ZM18.5091 5.44511C18.5091 5.05818 18.3139 4.63983 17.9101 4.4255L17.1601 5.83881C16.9683 5.73703 16.9091 5.56323 16.9091 5.44511H18.5091Z" fill="#015989" mask="url(#path-2-inside-1_3529_588)"/>
</g>
</g>
</g>
</g>
</g>
</svg>
