<svg width="14" height="15" viewBox="0 0 14 15" fill="none" xmlns="http://www.w3.org/2000/svg">
<g id="industrial 1">
<g id="Layer 29">
<path id="Vector" d="M12.25 12.3125H11.8125V7.5C11.8125 7.41257 11.7863 7.32715 11.7373 7.25474C11.6883 7.18233 11.6187 7.12624 11.5376 7.09369L7.16257 5.34369C7.05482 5.30058 6.93434 5.30203 6.82766 5.34774C6.72097 5.39345 6.63681 5.47967 6.59369 5.58742C6.55058 5.69518 6.55203 5.81566 6.59774 5.92234C6.64345 6.02903 6.72967 6.11319 6.83742 6.15631L10.9375 7.79628V8.8125H7.875C7.75897 8.8125 7.64769 8.85859 7.56564 8.94064C7.48359 9.02269 7.4375 9.13397 7.4375 9.25C7.4375 9.36603 7.48359 9.47731 7.56564 9.55936C7.64769 9.64141 7.75897 9.6875 7.875 9.6875H10.9375V10.5625H7.875C7.75897 10.5625 7.64769 10.6086 7.56564 10.6906C7.48359 10.7727 7.4375 10.884 7.4375 11C7.4375 11.116 7.48359 11.2273 7.56564 11.3094C7.64769 11.3914 7.75897 11.4375 7.875 11.4375H10.9375V12.3125H6.5275L5.68601 2.21369C5.6769 2.10432 5.62702 2.00236 5.54626 1.92805C5.46549 1.85374 5.35975 1.81249 5.25 1.8125H3.5C3.39025 1.81249 3.28451 1.85374 3.20374 1.92805C3.12298 2.00236 3.0731 2.10432 3.06399 2.21369L2.2225 12.3125H1.75C1.63397 12.3125 1.52269 12.3586 1.44064 12.4406C1.35859 12.5227 1.3125 12.634 1.3125 12.75C1.3125 12.866 1.35859 12.9773 1.44064 13.0594C1.52269 13.1414 1.63397 13.1875 1.75 13.1875H12.25C12.366 13.1875 12.4773 13.1414 12.5594 13.0594C12.6414 12.9773 12.6875 12.866 12.6875 12.75C12.6875 12.634 12.6414 12.5227 12.5594 12.4406C12.4773 12.3586 12.366 12.3125 12.25 12.3125ZM4.8475 2.6875L4.99332 4.4375H3.75664L3.9025 2.6875H4.8475ZM3.68375 5.3125H5.06625L5.64953 12.3125H3.10048L3.68375 5.3125Z" fill="#015989"/>
</g>
</g>
</svg>
