<svg width="20" height="20" viewBox="0 0 20 20" fill="none" xmlns="http://www.w3.org/2000/svg">
<g id="Icons">
<rect width="20" height="20" fill="white"/>
<path id="Vector" d="M10.1039 3.40103L10.104 3.40103C11.713 3.43263 13.1526 4.25792 13.9627 5.60371L14.3054 5.39743L13.9627 5.60372C14.7907 6.97919 14.8128 8.62519 14.0236 10.0159L10.4185 16.3683C10.4183 16.3686 10.4181 16.3689 10.418 16.3692C10.4175 16.3701 10.4172 16.3705 10.4171 16.3707L10.417 16.3708C10.3329 16.5116 10.1813 16.6 10.0001 16.6C9.81876 16.6 9.66717 16.5116 9.58304 16.3708L9.58294 16.3707C9.58281 16.3704 9.58254 16.37 9.58208 16.3692C9.58193 16.3689 9.58175 16.3686 9.58155 16.3683L5.97641 10.0159C5.18718 8.62518 5.20933 6.97919 6.03727 5.60372C6.84737 4.25792 8.28704 3.43263 9.89597 3.40103L9.89605 3.40103C9.96521 3.39966 10.0348 3.39966 10.1039 3.40103ZM7.55492 7.37501C7.55492 8.6957 8.6659 9.74376 10 9.74376C11.3341 9.74376 12.4451 8.6957 12.4451 7.37501C12.4451 6.05432 11.3341 5.00626 10 5.00626C8.6659 5.00626 7.55492 6.05432 7.55492 7.37501Z" stroke="#015989" stroke-width="0.8"/>
</g>
</svg>
