<svg width="20" height="21" viewBox="0 0 20 21" fill="none" xmlns="http://www.w3.org/2000/svg">
<g id="Icons">
<rect width="20" height="20" transform="translate(0 0.5)" fill="white"/>
<path id="Vector" d="M16.9653 13.1655C16.9244 13.0218 16.8514 12.8877 16.7513 12.7718C16.6511 12.6559 16.5258 12.5609 16.3837 12.4928L13.3982 11.0554C13.1573 10.9367 12.8785 10.9024 12.6127 10.9588C12.3469 11.0152 12.1117 11.1585 11.9501 11.3626L11.4675 11.977C11.4427 12.0089 11.4062 12.0313 11.3648 12.04C11.3235 12.0487 11.2802 12.043 11.243 12.0241C10.5331 11.6488 9.88327 11.1831 9.31224 10.6405C8.72832 10.1099 8.22711 9.50609 7.82314 8.84655C7.80277 8.81203 7.79667 8.77178 7.80601 8.73337C7.81534 8.69496 7.83946 8.66105 7.87382 8.63801L8.53269 8.18952C8.75232 8.03938 8.90654 7.82089 8.96724 7.5739C9.02793 7.32692 8.99106 7.06789 8.86334 6.84405L7.32597 4.0724C7.25214 3.94011 7.14913 3.82376 7.02367 3.73093C6.89821 3.63811 6.7531 3.57088 6.59781 3.53365C6.44251 3.49641 6.28052 3.49 6.12238 3.51482C5.96424 3.53965 5.8135 3.59516 5.67999 3.67773L3.80474 4.8438C3.54143 5.0067 3.3288 5.23104 3.18818 5.49433C3.04755 5.75762 2.98386 6.05063 3.00348 6.34399C3.02829 6.84 3.10017 7.33301 3.21827 7.81727C3.72751 9.64262 4.95596 11.5195 6.66227 13.1072C8.36858 14.6948 10.3911 15.8318 12.3556 16.3004C12.8768 16.4101 13.4074 16.4769 13.9412 16.5H14.0619C14.3564 16.4994 14.6463 16.4319 14.9063 16.3033C15.1663 16.1747 15.3884 15.9889 15.5534 15.7622L16.8036 14.0199C16.8938 13.8961 16.9549 13.756 16.9827 13.6087C17.0106 13.4615 17.0047 13.3104 16.9653 13.1655ZM15.9999 13.5198L14.757 15.2644C14.6745 15.3776 14.5616 15.4687 14.4296 15.5289C14.2975 15.5891 14.1508 15.6162 14.004 15.6075C13.5306 15.5872 13.0598 15.5294 12.5969 15.4348C10.7965 14.9998 8.93333 13.9481 7.34769 12.4681C5.76205 10.9881 4.62532 9.26365 4.15711 7.59079C4.05446 7.16077 3.99148 6.72341 3.96886 6.28344C3.95921 6.14733 3.98825 6.01124 4.05306 5.88884C4.11787 5.76644 4.21617 5.66202 4.33811 5.58605L6.21337 4.42446C6.24192 4.4067 6.27555 4.39733 6.30991 4.39755H6.35576C6.37952 4.40331 6.40171 4.41368 6.42084 4.42798C6.43998 4.44228 6.45564 4.46019 6.46678 4.48052L8.01139 7.25442C8.03059 7.28882 8.03603 7.32843 8.02675 7.36621C8.01747 7.40398 7.99407 7.43747 7.96071 7.46073L7.30183 7.90921C7.07841 8.06366 6.92361 8.28879 6.86669 8.54207C6.80977 8.79534 6.85468 9.05922 6.99291 9.28383C7.43961 10.0093 7.99187 10.6741 8.63406 11.2594C9.26395 11.8562 9.97945 12.3693 10.7603 12.7843C11.002 12.9127 11.286 12.9544 11.5586 12.9016C11.8312 12.8487 12.0735 12.7048 12.2398 12.4972L12.7224 11.8828C12.7475 11.8518 12.7835 11.8301 12.8242 11.8215C12.8648 11.8128 12.9075 11.8179 12.9445 11.8357L15.9299 13.2709C15.9518 13.2815 15.971 13.2963 15.9863 13.3142C16.0016 13.3322 16.0127 13.353 16.0189 13.3752C16.025 13.3973 16.0261 13.4205 16.022 13.4431C16.0179 13.4657 16.0087 13.4872 15.9951 13.5063L15.9999 13.5198Z" fill="#015989"/>
</g>
</svg>
