<svg width="20" height="21" viewBox="0 0 20 21" fill="none" xmlns="http://www.w3.org/2000/svg">
<g id="Icons">
<rect width="20" height="20" transform="translate(0 0.5)" fill="white"/>
<path id="Vector" d="M5.52263 6.66616L5.51278 6.68117C4.68874 7.63147 4.15345 8.7976 3.97029 10.0422C3.78577 11.2959 3.96637 12.5763 4.49048 13.7301C5.01459 14.884 5.86004 15.8625 6.92575 16.5488C7.99145 17.2351 9.23232 17.6 10.5 17.6C11.7677 17.6 13.0086 17.2351 14.0743 16.5488C15.14 15.8625 15.9854 14.884 16.5095 13.7301C17.0336 12.5763 17.2142 11.2959 17.0297 10.0422C16.8452 8.78848 16.3034 7.61439 15.4691 6.66031L15.4561 6.64549L15.4542 6.64452C15.4414 6.6285 15.427 6.61381 15.4112 6.60067C14.7941 5.9095 14.0381 5.35621 13.1926 4.97699C12.3445 4.59664 11.4255 4.4 10.4959 4.4C9.56641 4.4 8.64739 4.59664 7.7993 4.97699C6.9536 5.35627 6.19752 5.90966 5.58043 6.60098C5.55814 6.6198 5.53867 6.64175 5.52263 6.66616ZM14.7474 15.2205C14.105 15.8676 13.3242 16.3587 12.4655 16.6579C12.9348 16.1694 13.3397 15.5175 13.6487 14.7458C14.0281 14.8717 14.3957 15.0306 14.7474 15.2205ZM16.482 11.3023C16.4195 12.5651 15.957 13.7747 15.1611 14.7577C14.7439 14.5207 14.3046 14.3251 13.8494 14.1735C14.1389 13.2431 14.2964 12.2766 14.3171 11.3023H16.482ZM6.67784 11.3023C6.69845 12.2769 6.85589 13.2437 7.14556 14.1745C6.69035 14.3261 6.25103 14.5218 5.83387 14.7587C5.03792 13.7757 4.57539 12.5651 4.51295 11.3023H6.67784ZM6.67784 10.6962H4.513C4.57646 9.42635 5.04448 8.20969 5.8489 7.22433C6.26371 7.45902 6.70026 7.65304 7.15244 7.80366C6.85839 8.74061 6.6986 9.71448 6.67784 10.6962ZM10.8006 8.31973C11.6358 8.30028 12.466 8.184 13.2744 7.97323C13.547 8.85607 13.6953 9.77254 13.7149 10.6962H10.8006V8.31973ZM10.8006 7.71347V5.03544C11.7054 5.19575 12.5204 6.07129 13.0641 7.40112C12.3237 7.58961 11.5644 7.69439 10.8006 7.71347ZM10.1943 5.03544V7.71348C9.43052 7.6944 8.67127 7.58962 7.93087 7.40112C8.47451 6.07129 9.28955 5.19575 10.1943 5.03544ZM7.7206 7.97326C8.529 8.184 9.35913 8.30027 10.1943 8.31973V10.6962H7.28396C7.30237 9.77273 7.44933 8.85627 7.7206 7.97326ZM7.7206 14.0049C7.45147 13.1284 7.30462 12.219 7.2842 11.3023H10.1943V13.6566C9.35905 13.6766 8.52892 13.7935 7.7206 14.0049ZM7.92216 14.5772C8.6653 14.3873 9.42751 14.2818 10.1943 14.2627V16.9631C9.28509 16.8015 8.46255 15.9179 7.92216 14.5772ZM10.8006 14.2628C11.5674 14.2818 12.3296 14.3873 13.0728 14.5772C12.5324 15.9179 11.7098 16.8015 10.8006 16.9631V14.2628ZM13.2743 14.0039C12.466 13.7929 11.6358 13.6763 10.8006 13.6565V11.3023H13.7107C13.6902 12.2186 13.5434 13.1277 13.2743 14.0039ZM16.4819 10.6962H14.3171C14.2963 9.71448 14.1365 8.74061 13.8425 7.80366C14.2947 7.65304 14.7312 7.45902 15.146 7.22433C15.9504 8.2097 16.4185 9.42635 16.4819 10.6962ZM13.6383 7.23266C13.3311 6.47079 12.9313 5.82465 12.4645 5.34061C13.3163 5.63778 14.0912 6.12382 14.7305 6.76374C14.3807 6.95125 14.0153 7.10814 13.6383 7.23266ZM7.35757 7.23264C6.98065 7.10813 6.61524 6.95123 6.26544 6.76373C6.90399 6.12442 7.67798 5.63866 8.52863 5.34133C8.06277 5.82418 7.66423 6.47109 7.35757 7.23264ZM7.34827 14.7458C7.65629 15.5159 8.05779 16.1703 8.52764 16.6573C7.67032 16.3578 6.89091 15.867 6.24951 15.2205C6.60119 15.0306 6.96885 14.8717 7.34827 14.7458Z" fill="#015989" stroke="#015989" stroke-width="0.2"/>
</g>
</svg>
